<svg width="24" height="24" viewBox="0 0 24 24" fill="none" xmlns="http://www.w3.org/2000/svg">
<circle cx="12" cy="12" r="12" fill="#4E6297"/>
<path d="M17.4001 8.29092C17.4001 7.39248 16.6074 6.59973 15.7089 6.59973H8.89132C7.99288 6.59973 7.20013 7.39248 7.20013 8.29092V15.1085C7.20013 16.007 7.99288 16.7997 8.89132 16.7997H12.3266V12.9417H11.0582V11.2505H12.3266V10.5635C12.3266 9.40077 13.1722 8.39662 14.2292 8.39662H15.6032V10.0878H14.2292C14.0706 10.0878 13.912 10.2464 13.912 10.5635V11.2505H15.6032V12.9417H13.912V16.7997H15.7089C16.6074 16.7997 17.4001 16.007 17.4001 15.1085V8.29092Z" fill="white"/>
</svg>
