<svg width="24" height="24" viewBox="0 0 24 24" fill="none" xmlns="http://www.w3.org/2000/svg">
<circle cx="12" cy="12" r="12" fill="url(#paint0_linear_116_3070)"/>
<path d="M15.9487 7.19922H8.65173C7.82789 7.19922 7.2002 7.82691 7.2002 8.65076V15.9477C7.2002 16.7715 7.82789 17.3992 8.65173 17.3992H15.9487C16.7725 17.3992 17.4002 16.7715 17.4002 15.9477V8.65076C17.4002 7.82691 16.7725 7.19922 15.9487 7.19922ZM12.3002 15.3592C13.9871 15.3592 15.3602 14.0254 15.3602 12.4169C15.3602 12.1423 15.321 11.8285 15.2425 11.5931H16.1056V15.7515C16.1056 15.9477 15.9487 16.1438 15.7133 16.1438H8.88712C8.69097 16.1438 8.49481 15.9869 8.49481 15.7515V11.5538H9.39712C9.31866 11.8284 9.27943 12.1031 9.27943 12.3777C9.2402 14.0254 10.6133 15.3592 12.3002 15.3592ZM12.3002 14.1823C11.2017 14.1823 10.3387 13.3192 10.3387 12.26C10.3387 11.2008 11.2017 10.3377 12.3002 10.3377C13.3987 10.3377 14.2617 11.2008 14.2617 12.26C14.2617 13.3585 13.3987 14.1823 12.3002 14.1823ZM16.0664 9.9846C16.0664 10.22 15.8702 10.4161 15.6348 10.4161H14.5363C14.301 10.4161 14.1048 10.22 14.1048 9.9846V8.92537C14.1048 8.68999 14.301 8.49383 14.5363 8.49383H15.6348C15.8702 8.49383 16.0664 8.68999 16.0664 8.92537V9.9846Z" fill="white"/>
<defs>
<linearGradient id="paint0_linear_116_3070" x1="5.1" y1="21.3" x2="21" y2="4.8" gradientUnits="userSpaceOnUse">
<stop stop-color="#EEA054"/>
<stop offset="0.502762" stop-color="#D64763"/>
<stop offset="1" stop-color="#B62A99"/>
</linearGradient>
</defs>
</svg>
