<svg width="24" height="24" viewBox="0 0 24 24" fill="none" xmlns="http://www.w3.org/2000/svg">
<circle cx="12" cy="12" r="12" fill="#2878B7"/>
<path d="M16.7998 12.4459V15.7553H14.8626V12.6477C14.8626 11.8808 14.5801 11.3562 13.894 11.3562C13.3693 11.3562 13.0464 11.7194 12.9254 12.0423C12.885 12.1633 12.8446 12.3248 12.8446 12.5266V15.7553H10.9074C10.9074 15.7553 10.9478 10.5086 10.9074 9.98397H12.8446V10.7911C13.0868 10.3876 13.5711 9.82254 14.5801 9.82254C15.8312 9.82254 16.7998 10.6701 16.7998 12.4459ZM8.88949 7.19922C8.24375 7.19922 7.7998 7.64317 7.7998 8.20819C7.7998 8.77321 8.20339 9.21716 8.84913 9.21716C9.53523 9.21716 9.93882 8.77321 9.93882 8.20819C9.97918 7.60281 9.57559 7.19922 8.88949 7.19922ZM7.92088 15.7553H9.8581V9.98397H7.92088V15.7553Z" fill="white"/>
</svg>
