<svg width="68" height="16" viewBox="0 0 68 16" fill="none" xmlns="http://www.w3.org/2000/svg">
<path d="M0.546875 1.91406V0.261719H16.5547V1.91406H0.546875ZM9.46484 3.70703V16H7.625V3.70703H9.46484ZM25.4141 16H23.4453L17.4219 0.542969V0.261719H19.2969L25.4141 16ZM26.4453 13.6914L25.5078 11.1016L29.9492 0.261719H31.9648L38.1172 16H36.1953L30.957 2.67578L26.4453 13.6914ZM38.2344 11.1016L42.6055 0.261719H44.4688V0.542969L39.1953 13.6914L38.2344 11.1016ZM56.4219 16L47.4219 0.261719H49.3672L57.4062 14.1719L65.4219 0.261719H67.3672L58.3438 16H56.4219ZM47.4219 16V3.92969L49.2148 7.1875V16H47.4219ZM65.5625 16V7.1875L67.3672 3.92969V16H65.5625Z" fill="white"/>
</svg>
