<svg width="24" height="24" viewBox="0 0 24 24" fill="none" xmlns="http://www.w3.org/2000/svg">
<circle cx="12" cy="12" r="12" fill="#2F89CE"/>
<path d="M5.61081 12.2237L8.36967 13.2524L9.44515 16.7126C9.49191 16.9464 9.77247 16.9932 9.95951 16.8529L11.5026 15.5904C11.6429 15.4501 11.8767 15.4501 12.0637 15.5904L14.8226 17.6011C15.0096 17.7414 15.2902 17.6478 15.3369 17.414L17.3944 7.59441C17.4411 7.36061 17.2073 7.12681 16.9735 7.22033L5.61081 11.6158C5.33025 11.7093 5.33025 12.1301 5.61081 12.2237ZM9.30487 12.738L14.729 9.41806C14.8226 9.3713 14.9161 9.51158 14.8226 9.55834L10.3804 13.72C10.2401 13.8603 10.0998 14.0473 10.0998 14.2811L9.95951 15.4034C9.95951 15.5436 9.72571 15.5904 9.67895 15.4034L9.11782 13.3459C8.97754 13.1121 9.07107 12.8315 9.30487 12.738Z" fill="white"/>
</svg>
