<svg width="24" height="24" viewBox="0 0 24 24" fill="none" xmlns="http://www.w3.org/2000/svg">
<circle cx="12" cy="12" r="12" fill="#55ACE3"/>
<path d="M18.3596 8.94078C17.9396 9.12078 17.4596 9.24078 16.9796 9.30078C17.4596 9.00078 17.8796 8.52078 18.0596 7.98078C17.5796 8.28078 17.0996 8.46078 16.4996 8.58078C16.0796 8.10078 15.4196 7.80078 14.7596 7.80078C13.4396 7.80078 12.3596 8.88078 12.3596 10.2008C12.3596 10.3808 12.3596 10.5608 12.4196 10.7408C10.4396 10.6208 8.63961 9.66078 7.43961 8.22078C7.25961 8.58078 7.13961 9.00078 7.13961 9.42078C7.13961 10.2608 7.55961 10.9808 8.21961 11.4008C7.79961 11.4008 7.43961 11.2808 7.13961 11.1008C7.13961 12.2408 7.9796 13.2608 9.0596 13.4408C8.8796 13.5008 8.63961 13.5008 8.39961 13.5008C8.21961 13.5008 8.09961 13.5008 7.91961 13.4408C8.21961 14.4008 9.11961 15.1208 10.1996 15.1208C9.35961 15.7808 8.33961 16.1408 7.19961 16.1408C7.01961 16.1408 6.83961 16.1408 6.59961 16.0808C7.67961 16.7408 8.93961 17.1608 10.3196 17.1608C14.7596 17.1608 17.1596 13.5008 17.1596 10.3208V10.0208C17.6396 9.84078 18.0596 9.42078 18.3596 8.94078Z" fill="white"/>
</svg>
